<svg width="131" height="106" viewBox="0 0 131 106" fill="none" xmlns="http://www.w3.org/2000/svg">
<path d="M10.2315 61.6616L10.6286 70.1016L11.0257 73.5769L11.3324 75.3927C11.5245 76.53 11.8241 77.6466 12.2271 78.7273L12.256 78.805C12.5604 79.6213 12.9228 80.4147 13.3405 81.1791L14.3951 83.1091L15.624 84.8111C15.9983 85.3296 16.4314 85.803 16.9146 86.2219C17.0564 86.3448 17.2611 86.1746 17.1661 86.0127L17.0646 85.8397C16.7738 85.3442 16.5266 84.8243 16.3256 84.286L15.6708 82.5319L14.6523 79.7791C13.9598 77.9076 13.5791 75.9352 13.5253 73.9404L13.488 72.5576C13.455 71.3324 13.5455 70.107 13.7582 68.8999L14.0839 67.052C14.2909 65.8774 14.6126 64.7259 15.0443 63.6141L15.4678 62.5238C16.2351 60.5478 17.341 58.7207 18.7358 57.1245L19.5549 56.187C20.5759 55.0186 21.7418 53.9852 23.0243 53.1118L29.0659 48.9979C28.4349 48.9979 27.8107 49.1286 27.2328 49.3818L23.0063 51.2335L17.2655 54.4272C17.2655 53.1817 17.6597 51.9682 18.3915 50.9605L19.8169 48.9979L21.9073 46.6954C22.625 45.9048 23.5534 45.3354 24.5835 45.0541C25.8323 44.713 27.1606 44.8142 28.3433 45.3406L32.2553 47.0817L32.8961 47.4025C34.9915 48.4517 37.3025 48.9979 39.6458 48.9979C40.8801 48.9979 42.1097 48.8463 43.3071 48.5466L46.6072 47.7204L49.7965 46.4429L46.9261 43.5686L45.8588 42.6186C44.662 41.5533 43.33 40.6502 41.8972 39.9329L41.4083 39.6881C39.7805 38.8731 38.0398 38.3063 36.2442 38.0066L35.1256 37.8199L32.3517 37.3758C31.9963 37.3189 31.8633 36.8771 32.1281 36.6334C32.424 36.3612 32.7566 36.1317 33.1162 35.9517L33.3441 35.8376C34.5019 35.2579 35.8137 35.0604 37.0909 35.2736L37.7428 35.3824C38.545 35.5162 39.3225 35.7694 40.0497 36.1335L41.9003 37.0601C42.9098 37.5655 43.9641 37.9762 45.0495 38.2867L45.4233 38.3937C47.055 38.8605 48.7439 39.0974 50.4412 39.0974H51.5209C52.9174 39.0974 54.3087 38.9259 55.6635 38.5867C57.6883 38.0798 59.6029 37.2056 61.3122 36.0075L61.9158 35.5843C61.2136 34.4412 60.3385 33.4137 59.3217 32.5386L58.4076 31.7519L57.6283 31.1718C55.6964 29.7341 53.499 28.6931 51.1627 28.1088L49.9371 27.8023L46.1699 27.1172C45.6196 27.0171 45.6235 26.2267 46.1748 26.1321C46.6749 26.0463 47.1809 25.9986 47.6883 25.9896L51.8231 25.9157L53.3101 25.8166C55.2835 25.685 57.2225 25.2333 59.0509 24.4793L60.0023 24.0869L60.6514 23.7155C61.7056 23.1123 62.7154 22.4344 63.6731 21.6872C65.1654 20.5228 66.5235 19.1958 67.7221 17.7307L68.1082 17.2589C68.3684 16.9409 68.5963 16.5977 68.7885 16.2346L69.0127 15.811C69.2658 15.3328 69.4832 14.8365 69.6632 14.3263L69.9418 13.5368C69.9669 13.4656 69.926 13.388 69.853 13.3685L67.8424 12.8312C66.4488 12.4588 65.0125 12.2702 63.57 12.2702C62.6813 12.2702 61.794 12.3418 60.9168 12.4843L60.653 12.5271C58.2931 12.9104 56.0218 13.7167 53.9484 14.907L52.6245 15.6671C51.3849 16.3788 50.2611 17.289 49.3057 18.3521C48.3665 19.3971 47.5926 20.5893 47.0226 21.8735C46.7551 22.4762 46.2745 22.9588 45.673 23.2289L44.7754 23.632L44.8979 22.3815C44.9739 21.6068 45.1684 20.8485 45.4746 20.1329L46.0651 18.7531C46.6378 17.4151 47.0794 16.0248 47.384 14.6017C47.7156 13.0517 47.8829 11.471 47.8829 9.88594V9.07651L47.6246 7.14625C47.512 6.30516 47.336 5.47377 47.0981 4.65922C46.7717 3.54197 46.3303 2.46158 45.7809 1.43542L45.2046 0.358784C45.1021 0.167284 44.856 0.107224 44.6768 0.229969L43.4178 1.09223L40.0846 4.03742C38.6973 5.26315 37.4638 6.65258 36.4111 8.17528C35.5562 9.41184 34.8251 10.7296 34.2285 12.1094L34.0549 12.511L33.9492 12.8814C33.4601 14.5947 33.212 16.3678 33.212 18.1496V18.2642C33.212 19.3758 33.3152 20.4849 33.5202 21.5774C33.8744 23.4645 33.9237 25.3961 33.6663 27.2988L33.531 28.2988L33.3167 29.0722C32.8268 30.8403 31.9838 32.4909 30.8386 33.9244C30.323 34.5698 29.5417 34.9456 28.7157 34.9456H28.5328C28.3231 34.9456 28.174 34.7417 28.2376 34.5419L29.6873 29.9868C30.5365 27.0461 30.7096 23.9514 30.1936 20.9343L30.0227 19.9351L29.5748 17.8418C29.2364 16.2603 28.7455 14.7152 28.1091 13.2283C27.0498 11.1068 25.741 9.11927 24.2105 7.308L23.0063 5.8828L20.555 8.93646L19.2079 10.6941C17.924 12.3692 16.9604 14.2669 16.3657 16.2919C15.9048 17.861 15.6708 19.4879 15.6708 21.1233V21.6999C15.6708 22.8634 15.7668 24.025 15.9579 25.1728L16.1989 26.6212C16.4842 28.3349 16.9212 30.0199 17.5048 31.6563C17.9825 32.9957 18.3621 34.3681 18.6406 35.7626L18.9748 37.4359C19.1107 38.1161 19.1791 38.808 19.1791 39.5016V40.0448C19.1791 41.1096 19.0076 42.1674 18.6714 43.1776C18.3735 44.0724 17.9495 44.9202 17.4123 45.6953L16.1874 47.4625L13.5072 50.7392L12.9117 48.9979L12.0139 45.7608C11.6868 44.5814 11.2418 43.438 10.6857 42.3477L9.64026 40.298C9.24086 39.5149 8.78538 38.7617 8.27738 38.0443L7.04754 36.3076C6.13004 35.0119 5.04732 33.8415 3.82683 32.8261L1 30.4744L4.18931 34.9456L6.45951 38.4586L7.94847 41.6524L8.47122 43.0284C8.84993 44.0254 9.14049 45.0536 9.33956 46.1012L9.63596 47.6611L9.98318 49.7438C10.1485 50.7352 10.2315 51.7386 10.2315 52.7437V56.1011V61.6616Z" fill="url(#paint0_linear_3_39)" stroke="white" stroke-width="0.182421"/>
<path fill-rule="evenodd" clip-rule="evenodd" d="M43.131 83.9236L40.875 85.1939C39.968 85.7046 39.0002 86.0988 37.9945 86.3673C36.1182 86.8681 34.1504 86.9204 32.2502 86.52L31.6481 86.3931C30.2969 86.1083 29.0028 85.6 27.819 84.8891C26.1233 83.8707 24.6957 82.4616 23.6554 80.7793L23.495 80.5201C22.1598 78.3611 21.4525 75.8728 21.4525 73.3343V72.5797C21.4525 71.4021 21.6211 70.2305 21.9531 69.1007C22.5786 66.9719 23.7664 65.0512 25.3916 63.5406L25.946 63.0254C26.637 62.383 27.3995 61.8222 28.2185 61.3537C30.0826 60.2875 32.193 59.7266 34.3405 59.7266H35.1405C37.4491 59.7266 39.7364 60.1681 41.879 61.0274L42.8787 61.4284C44.2493 61.8204 45.7251 61.4779 46.7828 60.5223L47.6636 59.7266V85.963L45.1212 84.0544C44.5425 83.6199 43.7616 83.5686 43.131 83.9236ZM34.9552 80.9734C39.1225 80.9734 42.5008 77.5951 42.5008 73.4278C42.5008 69.2605 39.1225 65.8822 34.9552 65.8822C30.7879 65.8822 27.4096 69.2605 27.4096 73.4278C27.4096 77.5951 30.7879 80.9734 34.9552 80.9734Z" fill="white"/>
<path d="M40.875 85.1939L40.8303 85.1144L40.875 85.1939ZM43.131 83.9236L43.1758 84.0031L43.131 83.9236ZM37.9945 86.3673L38.018 86.4554L37.9945 86.3673ZM32.2502 86.52L32.269 86.4307L32.2502 86.52ZM31.6481 86.3931L31.6293 86.4823L31.6481 86.3931ZM27.819 84.8891L27.772 84.9673L27.819 84.8891ZM23.6554 80.7793L23.5778 80.8273L23.6554 80.7793ZM23.495 80.5201L23.5726 80.4721L23.495 80.5201ZM21.9531 69.1007L22.0406 69.1264L21.9531 69.1007ZM25.3916 63.5406L25.4537 63.6074L25.3916 63.5406ZM25.946 63.0254L25.8839 62.9586L25.946 63.0254ZM28.2185 61.3537L28.2638 61.4329L28.2185 61.3537ZM41.879 61.0274L41.8451 61.1121L41.879 61.0274ZM42.8787 61.4284L42.8446 61.5135L42.8536 61.5161L42.8787 61.4284ZM46.7828 60.5223L46.7217 60.4546L46.7828 60.5223ZM47.6636 59.7266H47.7548V59.5213L47.6025 59.6589L47.6636 59.7266ZM47.6636 85.963L47.6088 86.0359L47.7548 86.1455V85.963H47.6636ZM45.1212 84.0544L45.0665 84.1273L45.1212 84.0544ZM40.9198 85.2734L43.1758 84.0031L43.0863 83.8442L40.8303 85.1144L40.9198 85.2734ZM38.018 86.4554C39.0311 86.185 40.0061 85.7878 40.9198 85.2734L40.8303 85.1144C39.9299 85.6213 38.9692 86.0127 37.9709 86.2791L38.018 86.4554ZM32.2314 86.6092C34.1456 87.0126 36.1279 86.9599 38.018 86.4554L37.9709 86.2791C36.1085 86.7763 34.1552 86.8282 32.269 86.4307L32.2314 86.6092ZM31.6293 86.4823L32.2314 86.6092L32.269 86.4307L31.6669 86.3038L31.6293 86.4823ZM27.772 84.9673C28.9645 85.6834 30.2682 86.1955 31.6293 86.4823L31.6669 86.3038C30.3256 86.0212 29.041 85.5166 27.866 84.8109L27.772 84.9673ZM23.5778 80.8273C24.6258 82.5219 26.0639 83.9414 27.772 84.9673L27.866 84.8109C26.1828 83.8 24.7657 82.4013 23.7329 80.7314L23.5778 80.8273ZM23.4175 80.5681L23.5778 80.8273L23.7329 80.7314L23.5726 80.4721L23.4175 80.5681ZM21.3613 73.3343C21.3613 75.8898 22.0733 78.3947 23.4175 80.5681L23.5726 80.4721C22.2463 78.3276 21.5438 75.8559 21.5438 73.3343H21.3613ZM21.3613 72.5797V73.3343H21.5438V72.5797H21.3613ZM21.8656 69.075C21.5311 70.2132 21.3613 71.3934 21.3613 72.5797H21.5438C21.5438 71.4108 21.7111 70.2479 22.0406 69.1264L21.8656 69.075ZM25.3295 63.4738C23.6923 64.9955 22.4957 66.9305 21.8656 69.075L22.0406 69.1264C22.6615 67.0134 23.8406 65.1068 25.4537 63.6074L25.3295 63.4738ZM25.8839 62.9586L25.3295 63.4738L25.4537 63.6074L26.0081 63.0922L25.8839 62.9586ZM28.1732 61.2746C27.3482 61.7465 26.5801 62.3115 25.8839 62.9586L26.0081 63.0922C26.694 62.4546 27.4509 61.8979 28.2638 61.4329L28.1732 61.2746ZM34.3405 59.6354C32.1771 59.6354 30.0512 60.2004 28.1732 61.2746L28.2638 61.4329C30.1141 60.3745 32.2088 59.8178 34.3405 59.8178V59.6354ZM35.1405 59.6354H34.3405V59.8178H35.1405V59.6354ZM41.913 60.9428C39.7595 60.0791 37.4607 59.6354 35.1405 59.6354V59.8178C37.4375 59.8178 39.7132 60.2571 41.8451 61.1121L41.913 60.9428ZM42.9127 61.3437L41.913 60.9428L41.8451 61.1121L42.8448 61.513L42.9127 61.3437ZM46.7217 60.4546C45.6873 61.3891 44.2441 61.7241 42.9038 61.3407L42.8536 61.5161C44.2544 61.9168 45.7629 61.5667 46.844 60.59L46.7217 60.4546ZM47.6025 59.6589L46.7217 60.4546L46.844 60.59L47.7247 59.7943L47.6025 59.6589ZM47.7548 85.963V59.7266H47.5724V85.963H47.7548ZM45.0665 84.1273L47.6088 86.0359L47.7184 85.89L45.176 83.9814L45.0665 84.1273ZM43.1758 84.0031C43.7748 83.6658 44.5167 83.7145 45.0665 84.1273L45.176 83.9814C44.5683 83.5252 43.7484 83.4714 43.0863 83.8442L43.1758 84.0031ZM42.4096 73.4278C42.4096 77.5448 39.0722 80.8822 34.9552 80.8822V81.0646C39.1729 81.0646 42.592 77.6455 42.592 73.4278H42.4096ZM34.9552 65.9734C39.0722 65.9734 42.4096 69.3109 42.4096 73.4278H42.592C42.592 69.2101 39.1729 65.791 34.9552 65.791V65.9734ZM27.5008 73.4278C27.5008 69.3109 30.8383 65.9734 34.9552 65.9734V65.791C30.7375 65.791 27.3184 69.2101 27.3184 73.4278H27.5008ZM34.9552 80.8822C30.8383 80.8822 27.5008 77.5448 27.5008 73.4278H27.3184C27.3184 77.6455 30.7375 81.0646 34.9552 81.0646V80.8822Z" fill="white"/>
<path fill-rule="evenodd" clip-rule="evenodd" d="M65.2472 60.1538L64.7316 60.0825C63.0333 59.8475 61.3053 59.9497 59.6465 60.3833L58.7063 60.6291C57.5754 60.9246 56.4943 61.3856 55.4981 61.9971C53.6842 63.1105 52.2029 64.6911 51.2095 66.5734L50.9026 67.1547L50.7487 67.523C49.8919 69.5732 49.4507 71.7731 49.4507 73.9951V74.0873C49.4507 75.6339 49.6729 77.1725 50.1105 78.6558L50.4121 79.6782C50.7367 80.7785 51.2482 81.8148 51.9243 82.7416C52.7815 83.9168 53.8849 84.8908 55.1574 85.5957L55.9662 86.0437C57.6074 86.9527 59.4127 87.5272 61.2774 87.7338L61.8917 87.8018C63.0754 87.933 64.2726 87.8684 65.4353 87.6108C66.006 87.4844 66.5656 87.312 67.1085 87.0955L68.3889 86.5849C68.6712 86.4723 68.943 86.7684 68.8068 87.0401C68.488 87.6758 68.0687 88.2559 67.565 88.758L67.4492 88.8735C66.6887 89.6317 65.7622 90.2028 64.7431 90.5415C64.0385 90.7757 63.3009 90.895 62.5584 90.895H59.3236V97.5539H63.66C64.3132 97.5539 64.9653 97.503 65.6105 97.4015C67.3993 97.1204 69.1062 96.4559 70.6142 95.4536L71.81 94.6587C74.2038 93.0222 75.8118 90.4663 76.2511 87.6L76.3226 87.1333C76.4115 86.5538 76.4561 85.9683 76.4561 85.3821V60.4958L74.4498 61.9672C73.0549 62.9902 71.1492 62.9579 69.7898 61.8884C68.4273 60.9721 66.8736 60.3789 65.2472 60.1538ZM62.9534 80.9734C67.1207 80.9734 70.499 77.5951 70.499 73.4278C70.499 69.2605 67.1207 65.8822 62.9534 65.8822C58.7861 65.8822 55.4078 69.2605 55.4078 73.4278C55.4078 77.5951 58.7861 80.9734 62.9534 80.9734Z" fill="white"/>
<path d="M64.7316 60.0825L64.7191 60.1729L64.7316 60.0825ZM65.2472 60.1538L65.2597 60.0635L65.2472 60.1538ZM59.6465 60.3833L59.6696 60.4715L59.6465 60.3833ZM58.7063 60.6291L58.7293 60.7173V60.7173L58.7063 60.6291ZM55.4981 61.9971L55.5458 62.0748L55.4981 61.9971ZM51.2095 66.5734L51.1288 66.5308L51.2095 66.5734ZM50.9026 67.1547L50.8216 67.112L50.8185 67.1195L50.9026 67.1547ZM50.7487 67.523L50.6646 67.4878L50.7487 67.523ZM50.1105 78.6558L50.198 78.63L50.1105 78.6558ZM50.4121 79.6782L50.3246 79.704L50.4121 79.6782ZM51.9243 82.7416L51.8506 82.7953V82.7953L51.9243 82.7416ZM55.1574 85.5957L55.1132 85.6755L55.1574 85.5957ZM55.9662 86.0437L56.0104 85.9639L55.9662 86.0437ZM61.2774 87.7338L61.2875 87.6431H61.2875L61.2774 87.7338ZM61.8917 87.8018L61.8816 87.8925L61.8917 87.8018ZM65.4353 87.6108L65.4551 87.6998L65.4353 87.6108ZM67.1085 87.0955L67.0747 87.0108L67.1085 87.0955ZM68.3889 86.5849L68.3551 86.5002L68.3889 86.5849ZM68.8068 87.0401L68.7252 86.9992L68.8068 87.0401ZM67.565 88.758L67.5006 88.6934V88.6934L67.565 88.758ZM67.4492 88.8735L67.5136 88.938V88.938L67.4492 88.8735ZM64.7431 90.5415L64.7718 90.6281L64.7431 90.5415ZM59.3236 90.895V90.8038H59.2324V90.895H59.3236ZM59.3236 97.5539H59.2324V97.6451H59.3236V97.5539ZM65.6105 97.4015L65.5964 97.3114L65.6105 97.4015ZM70.6142 95.4536L70.6647 95.5295L70.6142 95.4536ZM71.81 94.6587L71.8605 94.7347L71.8615 94.734L71.81 94.6587ZM76.2511 87.6L76.1609 87.5862L76.2511 87.6ZM76.3226 87.1333L76.4128 87.1471L76.3226 87.1333ZM76.4561 60.4958H76.5473V60.3158L76.4021 60.4223L76.4561 60.4958ZM74.4498 61.9672L74.5038 62.0407L74.4498 61.9672ZM69.7898 61.8884L69.8463 61.8165L69.8407 61.8127L69.7898 61.8884ZM64.7191 60.1729L65.2347 60.2442L65.2597 60.0635L64.7441 59.9922L64.7191 60.1729ZM59.6696 60.4715C61.3168 60.041 63.0327 59.9395 64.7191 60.1729L64.7441 59.9922C63.0339 59.7555 61.2938 59.8585 59.6235 60.2951L59.6696 60.4715ZM58.7293 60.7173L59.6696 60.4715L59.6235 60.2951L58.6832 60.5408L58.7293 60.7173ZM55.5458 62.0748C56.5344 61.4681 57.6071 61.0106 58.7293 60.7173L58.6832 60.5408C57.5436 60.8387 56.4543 61.3032 55.4504 61.9194L55.5458 62.0748ZM51.2901 66.6159C52.276 64.7481 53.7458 63.1797 55.5458 62.0748L55.4504 61.9194C53.6225 63.0413 52.1299 64.634 51.1288 66.5308L51.2901 66.6159ZM50.9833 67.1973L51.2901 66.6159L51.1288 66.5308L50.822 67.1121L50.9833 67.1973ZM50.8329 67.5582L50.9868 67.1899L50.8185 67.1195L50.6646 67.4878L50.8329 67.5582ZM49.5419 73.9951C49.5419 71.7852 49.9807 69.5972 50.8329 67.5582L50.6646 67.4878C49.8031 69.5492 49.3595 71.761 49.3595 73.9951H49.5419ZM49.5419 74.0873V73.9951H49.3595V74.0873H49.5419ZM50.198 78.63C49.7629 77.155 49.5419 75.6252 49.5419 74.0873H49.3595C49.3595 75.6426 49.583 77.1899 50.023 78.6816L50.198 78.63ZM50.4996 79.6524L50.198 78.63L50.023 78.6816L50.3246 79.704L50.4996 79.6524ZM51.998 82.6878C51.3281 81.7695 50.8212 80.7427 50.4996 79.6524L50.3246 79.704C50.6522 80.8144 51.1684 81.8601 51.8506 82.7953L51.998 82.6878ZM55.2016 85.5159C53.9407 84.8175 52.8474 83.8523 51.998 82.6878L51.8506 82.7953C52.7157 83.9813 53.8291 84.9642 55.1132 85.6755L55.2016 85.5159ZM56.0104 85.9639L55.2016 85.5159L55.1132 85.6755L55.922 86.1235L56.0104 85.9639ZM61.2875 87.6431C59.4347 87.4379 57.6411 86.8671 56.0104 85.9639L55.922 86.1235C57.5738 87.0384 59.3906 87.6165 61.2674 87.8244L61.2875 87.6431ZM61.9017 87.7112L61.2875 87.6431L61.2674 87.8244L61.8816 87.8925L61.9017 87.7112ZM65.4156 87.5217C64.2626 87.7772 63.0755 87.8412 61.9017 87.7112L61.8816 87.8925C63.0753 88.0247 64.2826 87.9596 65.4551 87.6998L65.4156 87.5217ZM67.0747 87.0108C66.5363 87.2255 65.9815 87.3964 65.4156 87.5217L65.4551 87.6998C66.0305 87.5723 66.5948 87.3986 67.1423 87.1802L67.0747 87.0108ZM68.3551 86.5002L67.0747 87.0108L67.1423 87.1802L68.4227 86.6696L68.3551 86.5002ZM68.8883 87.0809C69.0621 86.7343 68.7153 86.3565 68.3551 86.5002L68.4227 86.6696C68.6271 86.5881 68.8239 86.8024 68.7252 86.9992L68.8883 87.0809ZM67.6294 88.8226C68.14 88.3135 68.5651 87.7254 68.8883 87.0809L68.7252 86.9992C68.4108 87.6261 67.9973 88.1982 67.5006 88.6934L67.6294 88.8226ZM67.5136 88.938L67.6294 88.8226L67.5006 88.6934L67.3848 88.8089L67.5136 88.938ZM64.7718 90.6281C65.8044 90.2849 66.7431 89.7063 67.5136 88.938L67.3848 88.8089C66.6343 89.5572 65.72 90.1207 64.7143 90.455L64.7718 90.6281ZM62.5584 90.9862C63.3106 90.9862 64.058 90.8653 64.7718 90.6281L64.7143 90.455C64.019 90.686 63.2911 90.8038 62.5584 90.8038V90.9862ZM59.3236 90.9862H62.5584V90.8038H59.3236V90.9862ZM59.4149 97.5539V90.895H59.2324V97.5539H59.4149ZM63.66 97.4627H59.3236V97.6451H63.66V97.4627ZM65.5964 97.3114C64.9558 97.4121 64.3084 97.4627 63.66 97.4627V97.6451C64.3179 97.6451 64.9748 97.5938 65.6247 97.4917L65.5964 97.3114ZM70.5637 95.3776C69.0666 96.3727 67.3722 97.0323 65.5964 97.3114L65.6247 97.4917C67.4265 97.2085 69.1457 96.5391 70.6647 95.5295L70.5637 95.3776ZM71.7595 94.5828L70.5637 95.3776L70.6647 95.5295L71.8605 94.7347L71.7595 94.5828ZM76.1609 87.5862C75.7255 90.4275 74.1314 92.9611 71.7585 94.5834L71.8615 94.734C74.2761 93.0832 75.8982 90.5051 76.3413 87.6139L76.1609 87.5862ZM76.2325 87.1195L76.1609 87.5862L76.3413 87.6139L76.4128 87.1471L76.2325 87.1195ZM76.3648 85.3821C76.3648 85.9637 76.3206 86.5445 76.2325 87.1195L76.4128 87.1471C76.5023 86.563 76.5473 85.973 76.5473 85.3821H76.3648ZM76.3648 60.4958V85.3821H76.5473V60.4958H76.3648ZM74.5038 62.0407L76.51 60.5694L76.4021 60.4223L74.3959 61.8936L74.5038 62.0407ZM69.7334 61.9601C71.125 63.0549 73.0759 63.0879 74.5038 62.0407L74.3959 61.8936C73.034 62.8924 71.1734 62.8609 69.8462 61.8167L69.7334 61.9601ZM65.2347 60.2442C66.8474 60.4673 68.3879 61.0555 69.7389 61.9641L69.8407 61.8127C68.4666 60.8887 66.8999 60.2904 65.2597 60.0635L65.2347 60.2442ZM70.4078 73.4278C70.4078 77.5448 67.0704 80.8822 62.9534 80.8822V81.0646C67.1711 81.0646 70.5902 77.6455 70.5902 73.4278H70.4078ZM62.9534 65.9734C67.0704 65.9734 70.4078 69.3109 70.4078 73.4278H70.5902C70.5902 69.2101 67.1711 65.791 62.9534 65.791V65.9734ZM55.499 73.4278C55.499 69.3109 58.8365 65.9734 62.9534 65.9734V65.791C58.7357 65.791 55.3166 69.2101 55.3166 73.4278H55.499ZM62.9534 80.8822C58.8365 80.8822 55.499 77.5448 55.499 73.4278H55.3166C55.3166 77.6455 58.7357 81.0646 62.9534 81.0646V80.8822Z" fill="white"/>
<path d="M86.8993 89.896H79.4056V60.6066L82.9581 63.8795C83.0741 63.9863 83.2455 64.0066 83.3832 63.9297L86.8993 61.9664C89.0229 61.069 91.3048 60.6066 93.6102 60.6066H98.5563V66.7899H96.1625H95.2686C93.5928 66.7899 91.935 67.1357 90.399 67.8058C89.7325 68.0965 89.0934 68.4464 88.4893 68.8511L88.2564 69.0072C87.4083 69.5754 86.8993 70.5291 86.8993 71.5499V73.6822V89.896Z" fill="white" stroke="white" stroke-width="0.182421"/>
<path fill-rule="evenodd" clip-rule="evenodd" d="M113.201 89.896C121.414 89.896 128.071 83.2385 128.071 75.026C128.071 66.8135 121.414 60.156 113.201 60.156C104.989 60.156 98.331 66.8135 98.331 75.026C98.331 83.2385 104.989 89.896 113.201 89.896ZM113.314 82.461C117.482 82.461 120.861 79.1322 120.861 75.026C120.861 70.9198 117.482 67.591 113.314 67.591C109.145 67.591 105.766 70.9198 105.766 75.026C105.766 79.1322 109.145 82.461 113.314 82.461Z" fill="white"/>
<path d="M78.7147 99.4027V92.5396H79.7334V93.612H79.8228C79.9658 93.2456 80.1966 92.9611 80.5154 92.7586C80.8341 92.553 81.2169 92.4503 81.6637 92.4503C82.1165 92.4503 82.4933 92.553 82.7941 92.7586C83.098 92.9611 83.3348 93.2456 83.5046 93.612H83.5761C83.7518 93.2575 84.0154 92.976 84.3669 92.7675C84.7184 92.556 85.1399 92.4503 85.6314 92.4503C86.245 92.4503 86.747 92.6424 87.1372 93.0267C87.5274 93.408 87.7225 94.0022 87.7225 94.8095V99.4027H86.668V94.8095C86.668 94.3031 86.5295 93.9412 86.2525 93.7237C85.9755 93.5063 85.6493 93.3975 85.274 93.3975C84.7914 93.3975 84.4176 93.5435 84.1525 93.8354C83.8873 94.1243 83.7548 94.4907 83.7548 94.9346V99.4027H82.6824V94.7022C82.6824 94.312 82.5558 93.9977 82.3026 93.7594C82.0494 93.5182 81.7233 93.3975 81.3241 93.3975C81.0501 93.3975 80.7939 93.4705 80.5556 93.6165C80.3203 93.7624 80.1296 93.965 79.9837 94.2241C79.8407 94.4803 79.7692 94.7767 79.7692 95.1133V99.4027H78.7147ZM91.6701 99.5636C91.2352 99.5636 90.8405 99.4817 90.4861 99.3178C90.1316 99.151 89.8501 98.9112 89.6416 98.5985C89.4331 98.2827 89.3288 97.9014 89.3288 97.4546C89.3288 97.0614 89.4063 96.7427 89.5612 96.4984C89.716 96.2512 89.9231 96.0576 90.1822 95.9176C90.4414 95.7776 90.7273 95.6733 91.0401 95.6048C91.3559 95.5333 91.6731 95.4767 91.9918 95.435C92.4089 95.3814 92.7469 95.3412 93.0061 95.3144C93.2682 95.2846 93.4589 95.2354 93.578 95.1669C93.7002 95.0984 93.7612 94.9793 93.7612 94.8095V94.7737C93.7612 94.3329 93.6406 93.9903 93.3993 93.746C93.161 93.5018 92.7991 93.3797 92.3135 93.3797C91.8101 93.3797 91.4154 93.4899 91.1295 93.7103C90.8435 93.9307 90.6424 94.166 90.5263 94.4163L89.5254 94.0588C89.7041 93.6418 89.9424 93.3171 90.2403 93.0848C90.5412 92.8494 90.8688 92.6856 91.2233 92.5933C91.5808 92.4979 91.9323 92.4503 92.2778 92.4503C92.4982 92.4503 92.7514 92.4771 93.0374 92.5307C93.3263 92.5813 93.6048 92.6871 93.8729 92.8479C94.144 93.0088 94.3689 93.2516 94.5476 93.5763C94.7263 93.9009 94.8157 94.3358 94.8157 94.881V99.4027H93.7612V98.4733H93.7076C93.6361 98.6223 93.517 98.7817 93.3501 98.9514C93.1833 99.1212 92.9614 99.2657 92.6844 99.3849C92.4074 99.504 92.0693 99.5636 91.6701 99.5636ZM91.831 98.6163C92.248 98.6163 92.5995 98.5344 92.8855 98.3706C93.1744 98.2067 93.3919 97.9953 93.5378 97.7361C93.6867 97.477 93.7612 97.2044 93.7612 96.9184V95.9533C93.7165 96.0069 93.6182 96.0561 93.4663 96.1008C93.3174 96.1425 93.1446 96.1797 92.948 96.2125C92.7544 96.2423 92.5652 96.2691 92.3806 96.2929C92.1989 96.3137 92.0514 96.3316 91.9382 96.3465C91.6642 96.3823 91.408 96.4403 91.1697 96.5208C90.9344 96.5982 90.7437 96.7159 90.5978 96.8737C90.4548 97.0286 90.3833 97.2401 90.3833 97.5082C90.3833 97.8746 90.5188 98.1516 90.7899 98.3393C91.0639 98.524 91.411 98.6163 91.831 98.6163ZM96.7404 99.4027V92.5396H97.7591V93.5763H97.8306C97.9557 93.2367 98.1821 92.9611 98.5097 92.7496C98.8374 92.5382 99.2068 92.4324 99.6179 92.4324C99.6953 92.4324 99.7921 92.4339 99.9083 92.4369C100.024 92.4399 100.112 92.4443 100.172 92.4503V93.5226C100.136 93.5137 100.054 93.5003 99.9262 93.4824C99.801 93.4616 99.6685 93.4511 99.5285 93.4511C99.1949 93.4511 98.897 93.5211 98.6349 93.6611C98.3757 93.7982 98.1702 93.9888 98.0183 94.2331C97.8693 94.4744 97.7948 94.7499 97.7948 95.0597V99.4027H96.7404ZM102.405 96.9006L102.387 95.5959H102.601L105.604 92.5396H106.909L103.71 95.7746H103.62L102.405 96.9006ZM101.422 99.4027V90.2519H102.476V99.4027H101.422ZM105.783 99.4027L103.102 96.0069L103.853 95.2742L107.123 99.4027H105.783ZM110.861 99.5457C110.2 99.5457 109.629 99.3997 109.15 99.1078C108.673 98.8129 108.305 98.4019 108.046 97.8746C107.79 97.3444 107.662 96.7278 107.662 96.0248C107.662 95.3218 107.79 94.7022 108.046 94.166C108.305 93.6269 108.665 93.2069 109.127 92.906C109.592 92.6022 110.134 92.4503 110.754 92.4503C111.111 92.4503 111.464 92.5099 111.813 92.629C112.161 92.7482 112.478 92.9418 112.764 93.2099C113.05 93.475 113.278 93.8265 113.448 94.2643C113.618 94.7022 113.703 95.2414 113.703 95.8818V96.3286H108.412V95.4171H112.63C112.63 95.0299 112.553 94.6844 112.398 94.3805C112.246 94.0767 112.029 93.8369 111.746 93.6611C111.466 93.4854 111.135 93.3975 110.754 93.3975C110.334 93.3975 109.97 93.5018 109.663 93.7103C109.36 93.9158 109.126 94.1839 108.962 94.5146C108.798 94.8452 108.716 95.1997 108.716 95.578V96.1857C108.716 96.704 108.805 97.1433 108.984 97.5038C109.166 97.8612 109.418 98.1338 109.739 98.3214C110.061 98.5061 110.435 98.5985 110.861 98.5985C111.138 98.5985 111.388 98.5597 111.611 98.4823C111.838 98.4019 112.033 98.2827 112.197 98.1248C112.361 97.964 112.487 97.7644 112.577 97.5261L113.595 97.8121C113.488 98.1576 113.308 98.4614 113.055 98.7236C112.802 98.9827 112.489 99.1853 112.116 99.3312C111.744 99.4742 111.326 99.5457 110.861 99.5457ZM118.291 92.5396V93.4333H114.735V92.5396H118.291ZM115.771 90.8954H116.826V97.4367C116.826 97.7346 116.869 97.958 116.955 98.107C117.045 98.2529 117.158 98.3512 117.295 98.4019C117.435 98.4495 117.582 98.4733 117.737 98.4733C117.854 98.4733 117.949 98.4674 118.023 98.4555C118.098 98.4406 118.157 98.4287 118.202 98.4197L118.416 99.367C118.345 99.3938 118.245 99.4206 118.117 99.4474C117.989 99.4772 117.827 99.4921 117.63 99.4921C117.332 99.4921 117.04 99.428 116.754 99.3C116.471 99.1719 116.236 98.9768 116.048 98.7146C115.864 98.4525 115.771 98.1219 115.771 97.7227V90.8954Z" fill="white"/>
<defs>
<linearGradient id="paint0_linear_3_39" x1="38.5218" y1="26.5115" x2="83.712" y2="179.119" gradientUnits="userSpaceOnUse">
<stop stop-color="white"/>
<stop offset="1" stop-color="#465430"/>
</linearGradient>
</defs>
</svg>
