<svg width="45" height="45" viewBox="0 0 45 45" fill="none" xmlns="http://www.w3.org/2000/svg">
<path d="M30.3333 28.3749H16.625V24.4583H30.3333V28.3749ZM36.2083 20.5416H16.625V16.6249H36.2083V20.5416ZM36.2083 12.7083H16.625V8.79158H36.2083V12.7083ZM4.87501 8.79158V40.1249H36.2083V44.0416H4.87501C3.83625 44.0416 2.84003 43.6289 2.10551 42.8944C1.37099 42.1599 0.958344 41.1637 0.958344 40.1249V8.79158H4.87501ZM40.125 0.958252C41.1638 0.958252 42.16 1.3709 42.8945 2.10542C43.629 2.83993 44.0417 3.83615 44.0417 4.87492V32.2916C44.0417 34.4653 42.2988 36.2083 40.125 36.2083H12.7083C11.6696 36.2083 10.6734 35.7956 9.93884 35.0611C9.20432 34.3266 8.79168 33.3303 8.79168 32.2916V4.87492C8.79168 2.70117 10.5346 0.958252 12.7083 0.958252H40.125ZM12.7083 4.87492V32.2916H40.125V4.87492H12.7083Z" fill="#F1CF69"/>
</svg>
